# xmcd CD database file
#
# Track frame offsets:
#	150
#	15442
#	31566
#	51311
#	65965
#	87935
#	97345
#	115303
#	130148
#	150500
#	165719
#
# Disc length: 2322 seconds
#
# Revision: 4
# Processed by: cddbd v1.5PL3 Copyright (c) Steve Scherf et al.
# Submitted via: CDex 1.51
#
DISCID=8c09100b
DTITLE=Delta Roux - Dirty Shoes
DYEAR=1999
DGENRE=Blues
TTITLE0=Bad Wind Blowin
TTITLE1=Can't Live Without It
TTITLE2=Dirty Shoes
TTITLE3=Shake That Thing
TTITLE4=Been Way Too Long
TTITLE5=Eleven/Eleven
TTITLE6=Drop Em' In the Well
TTITLE7=Shufflin' Shoes
TTITLE8=Which Way To My Home
TTITLE9=I've Been Workin'
TTITLE10=Son's House
EXTD=YEAR: 1999
EXTT0=
EXTT1=
EXTT2=
EXTT3=
EXTT4=
EXTT5=
EXTT6=
EXTT7=
EXTT8=
EXTT9=
EXTT10=
PLAYORDER=
